<svg width="24" height="24" viewBox="0 0 24 24" fill="none" xmlns="http://www.w3.org/2000/svg">
<path fill-rule="evenodd" clip-rule="evenodd" d="M0.340134 0.340134C0.793646 -0.113378 1.52893 -0.113378 1.98245 0.340134L12 10.3577L22.0176 0.340134C22.4711 -0.113378 23.2064 -0.113378 23.6599 0.340134C24.1134 0.793646 24.1134 1.52893 23.6599 1.98245L13.6423 12L23.6599 22.0176C24.1134 22.4711 24.1134 23.2064 23.6599 23.6599C23.2064 24.1134 22.4711 24.1134 22.0176 23.6599L12 13.6423L1.98245 23.6599C1.52893 24.1134 0.793646 24.1134 0.340134 23.6599C-0.113378 23.2064 -0.113378 22.4711 0.340134 22.0176L10.3577 12L0.340134 1.98245C-0.113378 1.52893 -0.113378 0.793646 0.340134 0.340134Z" fill="#EAE0E0"/>
</svg>
