<svg width="21" height="16" viewBox="0 0 21 16" fill="none" xmlns="http://www.w3.org/2000/svg">
<path d="M0 1C0 0.44771 0.44772 0 1 0H20C20.5523 0 21 0.44771 21 1C21 1.55229 20.5523 2 20 2H1C0.44772 2 0 1.55229 0 1Z" />
<path d="M0 8.0001C0 7.4478 0.44772 7 1 7L12 7.0003C12.5523 7.0003 13 7.448 13 8.0003C13 8.5526 12.5523 9.0003 12 9.0003L1 9.0001C0.44772 9.0001 0 8.5523 0 8.0001Z" />
<path d="M1 14C0.44772 14 0 14.4477 0 15C0 15.5522 0.44772 15.9999 1 15.9999H18C18.5523 15.9999 19 15.5522 19 15C19 14.4477 18.5523 14 18 14H1Z" />
</svg>
