<svg width="31" height="31" viewBox="0 0 31 31" fill="none" xmlns="http://www.w3.org/2000/svg">
<path d="M15.5 5.81286C12.9307 5.81286 10.4667 6.83357 8.6499 8.65044C6.83314 10.4673 5.8125 12.9315 5.8125 15.501C5.8125 18.0704 6.83314 20.5346 8.6499 22.3515C10.4667 24.1684 12.9307 25.1891 15.5 25.1891C18.0693 25.1891 20.5333 24.1684 22.3501 22.3515C24.1669 20.5346 25.1875 18.0704 25.1875 15.501C25.1875 12.9315 24.1669 10.4673 22.3501 8.65044C20.5333 6.83357 18.0693 5.81286 15.5 5.81286ZM13.4676 7.75048C12.7702 8.60267 12.2852 9.60828 12.0525 10.6846C11.8197 11.7608 11.8459 12.877 12.1288 13.9412C12.6069 15.7253 13.774 17.2465 15.3733 18.1705C16.9726 19.0945 18.8733 19.3455 20.6576 18.8686C21.607 18.6109 22.4905 18.1516 23.25 17.5297C22.8734 18.8388 22.1654 20.0285 21.1942 20.9837C20.2231 21.9389 19.0219 22.6273 17.7068 22.9821C15.7048 23.4898 13.5836 23.194 11.7968 22.1579C10.0101 21.1217 8.69967 19.4275 8.14585 17.4376C7.59202 15.4477 7.83875 13.3201 8.83326 11.5098C9.82778 9.69948 11.4911 8.35018 13.4676 7.75048ZM16.4688 0H14.5312V3.87524H16.4688V0ZM25.7746 3.85587L23.0349 6.59566L24.4047 7.96556L27.1463 5.22576L25.7746 3.85587ZM5.22544 3.85587L3.85563 5.22576L6.59525 7.96556L7.96506 6.59566L5.22544 3.85587ZM31 14.5322H27.125V16.4698H31V14.5322ZM3.875 14.5322H0V16.4698H3.875V14.5322ZM24.4047 23.0364L23.0349 24.4063L25.7746 27.1461L27.1444 25.7762L24.4047 23.0364ZM6.59525 23.0364L3.85563 25.7762L5.22544 27.1461L7.96506 24.4063L6.59525 23.0364ZM16.4688 27.1248H14.5312V31H16.4688V27.1248Z" fill="#B6A858"/>
</svg>
