
<svg width="31" height="31" viewBox="0 0 31 31" fill="currentColor" xmlns="http://www.w3.org/2000/svg">
<rect id="SvgThemeMain" x="5.8125" y="5.8125" width="19.375" height="19.375" rx="9.6875"/>
<path id="SvgThemeDop" d="M15.5 5.8125C12.9307 5.8125 10.4667 6.83314 8.6499 8.6499C6.83314 10.4667 5.8125 12.9307 5.8125 15.5C5.8125 18.0693 6.83314 20.5333 8.6499 22.3501C10.4667 24.1669 12.9307 25.1875 15.5 25.1875C18.0693 25.1875 20.5333 24.1669 22.3501 22.3501C24.1669 20.5333 25.1875 18.0693 25.1875 15.5C25.1875 12.9307 24.1669 10.4667 22.3501 8.6499C20.5333 6.83314 18.0693 5.8125 15.5 5.8125ZM13.4676 7.75C12.7702 8.60213 12.2852 9.60768 12.0525 10.6839C11.8197 11.7601 11.8459 12.8762 12.1288 13.9403C12.6069 15.7243 13.774 17.2455 15.3733 18.1694C16.9726 19.0933 18.8733 19.3443 20.6576 18.8674C21.607 18.6097 22.4905 18.1505 23.25 17.5286C22.8734 18.8376 22.1654 20.0273 21.1942 20.9824C20.2231 21.9376 19.0219 22.6259 17.7068 22.9807C15.7048 23.4884 13.5836 23.1926 11.7968 22.1565C10.0101 21.1204 8.69967 19.4263 8.14585 17.4365C7.59202 15.4468 7.83875 13.3193 8.83327 11.5091C9.82778 9.69887 11.4911 8.34966 13.4676 7.75ZM16.4688 0H14.5312V3.875H16.4688V0ZM25.7746 3.85563L23.0349 6.59525L24.4047 7.96506L27.1463 5.22544L25.7746 3.85563ZM5.22544 3.85563L3.85562 5.22544L6.59525 7.96506L7.96506 6.59525L5.22544 3.85563ZM31 14.5313H27.125V16.4688H31V14.5313ZM3.875 14.5313H0V16.4688H3.875V14.5313ZM24.4047 23.0349L23.0349 24.4048L25.7746 27.1444L27.1444 25.7746L24.4047 23.0349ZM6.59525 23.0349L3.85562 25.7746L5.22544 27.1444L7.96506 24.4048L6.59525 23.0349ZM16.4688 27.1231H14.5312V30.9981H16.4688V27.1231Z"  />
</svg>
